<svg xmlns="http://www.w3.org/2000/svg" xmlns:xlink="http://www.w3.org/1999/xlink" width="1080" zoomAndPan="magnify" viewBox="0 0 810 809.999993" height="1080" preserveAspectRatio="xMidYMid meet" version="1.0"><defs><g/></defs><g fill="#e932a6" fill-opacity="1"><g transform="translate(68.16887, 414.929354)"><g><path d="M 173.90625 -120.765625 L 154.46875 -120.765625 L 154.46875 0 L 123.34375 0 L 123.34375 -70.203125 L 100.53125 -70.203125 L 100.53125 -64.25 C 100.53125 -55.65625 98.710938 -47.984375 95.078125 -41.234375 C 91.441406 -34.492188 86.253906 -29.238281 79.515625 -25.46875 C 72.773438 -21.707031 64.84375 -19.828125 55.71875 -19.828125 C 41.175781 -19.828125 29.972656 -23.890625 22.109375 -32.015625 C 14.242188 -40.148438 10.3125 -50.894531 10.3125 -64.25 L 10.3125 -96.765625 L 41.640625 -96.765625 L 41.640625 -65.046875 C 41.640625 -59.359375 42.863281 -54.925781 45.3125 -51.75 C 47.757812 -48.582031 51.296875 -47 55.921875 -47 C 60.410156 -47 63.878906 -48.582031 66.328125 -51.75 C 68.773438 -54.925781 70 -59.359375 70 -65.046875 L 70 -96.765625 L 123.34375 -96.765625 L 123.34375 -120.765625 L -3.375 -120.765625 L -3.375 -146.734375 L 173.90625 -146.734375 Z M 173.90625 -120.765625 "/></g></g></g><g fill="#e932a6" fill-opacity="1"><g transform="translate(238.706553, 414.929354)"><g><path d="M 66.625 -146.734375 L 66.625 -120.765625 L 47.1875 -120.765625 L 47.1875 0 L 16.0625 0 L 16.0625 -120.765625 L -3.375 -120.765625 L -3.375 -146.734375 L 17.046875 -146.734375 L 17.046875 -154.28125 C 17.046875 -170.269531 11.492188 -178.265625 0.390625 -178.265625 C -11.234375 -178.265625 -17.046875 -170.269531 -17.046875 -154.28125 L -17.046875 -139.796875 L -47.1875 -139.796875 L -47.1875 -152.6875 C -47.1875 -168.6875 -43.421875 -181.3125 -35.890625 -190.5625 C -28.359375 -199.8125 -16.265625 -204.4375 0.390625 -204.4375 C 31.585938 -204.4375 47.1875 -187.1875 47.1875 -152.6875 L 47.1875 -146.734375 Z M 66.625 -146.734375 "/></g></g></g><g fill="#194278" fill-opacity="1"><g transform="translate(301.969635, 414.929354)"><g><path d="M 62.0625 -31.734375 L 86.0625 -110.65625 L 122.15625 -110.65625 L 82.890625 0 L 41.046875 0 L 1.78125 -110.65625 L 38.078125 -110.65625 Z M 62.0625 -31.734375 "/></g></g></g><g fill="#194278" fill-opacity="1"><g transform="translate(426.105227, 414.929354)"><g><path d="M 29.34375 -122.15625 C 23.394531 -122.15625 18.535156 -123.90625 14.765625 -127.40625 C 11.003906 -130.90625 9.125 -135.234375 9.125 -140.390625 C 9.125 -145.679688 11.003906 -150.078125 14.765625 -153.578125 C 18.535156 -157.078125 23.394531 -158.828125 29.34375 -158.828125 C 35.164062 -158.828125 39.957031 -157.078125 43.71875 -153.578125 C 47.488281 -150.078125 49.375 -145.679688 49.375 -140.390625 C 49.375 -135.234375 47.488281 -130.90625 43.71875 -127.40625 C 39.957031 -123.90625 35.164062 -122.15625 29.34375 -122.15625 Z M 46.203125 -110.65625 L 46.203125 0 L 12.296875 0 L 12.296875 -110.65625 Z M 46.203125 -110.65625 "/></g></g></g><g fill="#194278" fill-opacity="1"><g transform="translate(484.603644, 414.929354)"><g><path d="M 79.90625 0 L 46.203125 -46.40625 L 46.203125 0 L 12.296875 0 L 12.296875 -146.734375 L 46.203125 -146.734375 L 46.203125 -65.640625 L 79.71875 -110.65625 L 121.5625 -110.65625 L 75.546875 -55.125 L 121.953125 0 Z M 79.90625 0 "/></g></g></g><g fill="#194278" fill-opacity="1"><g transform="translate(607.152809, 414.929354)"><g><path d="M 5.546875 -55.515625 C 5.546875 -66.890625 7.691406 -76.875 11.984375 -85.46875 C 16.285156 -94.0625 22.140625 -100.671875 29.546875 -105.296875 C 36.953125 -109.921875 45.210938 -112.234375 54.328125 -112.234375 C 62.128906 -112.234375 68.972656 -110.644531 74.859375 -107.46875 C 80.742188 -104.300781 85.269531 -100.140625 88.4375 -94.984375 L 88.4375 -110.65625 L 122.34375 -110.65625 L 122.34375 0 L 88.4375 0 L 88.4375 -15.671875 C 85.132812 -10.515625 80.539062 -6.347656 74.65625 -3.171875 C 68.769531 0.00390625 61.929688 1.59375 54.140625 1.59375 C 45.148438 1.59375 36.953125 -0.753906 29.546875 -5.453125 C 22.140625 -10.148438 16.285156 -16.828125 11.984375 -25.484375 C 7.691406 -34.140625 5.546875 -44.148438 5.546875 -55.515625 Z M 88.4375 -55.328125 C 88.4375 -63.785156 86.085938 -70.457031 81.390625 -75.34375 C 76.703125 -80.238281 70.988281 -82.6875 64.25 -82.6875 C 57.507812 -82.6875 51.789062 -80.273438 47.09375 -75.453125 C 42.40625 -70.628906 40.0625 -63.984375 40.0625 -55.515625 C 40.0625 -47.054688 42.40625 -40.347656 47.09375 -35.390625 C 51.789062 -30.429688 57.507812 -27.953125 64.25 -27.953125 C 70.988281 -27.953125 76.703125 -30.398438 81.390625 -35.296875 C 86.085938 -40.191406 88.4375 -46.867188 88.4375 -55.328125 Z M 88.4375 -55.328125 "/></g></g></g></svg>